<?xml version="1.0" standalone="no"?>
<!--Created with Sketsa SVG Editor (http://www.kiyut.com)-->
<svg contentScriptType="text/ecmascript" xmlns:xlink="http://www.w3.org/1999/xlink" baseProfile="full" zoomAndPan="magnify"
    contentStyleType="text/css" preserveAspectRatio="xMidYMid meet" xmlns="http://www.w3.org/2000/svg" version="1.0">
    <g transform="scale(.1)">
        <rect x="0" width="310px" height="150px" id="skyLiten" y="0" style="fill: royalblue; stroke: none;"/>
        <path fill="seashell" d="M 16.0 88.0 C 8.0 63.0 8.0 63.0 8.0 63.0 C 17.0 44.0 17.0 44.0 17.0 44.0 C 30.0 39.0 
            30.0 39.0 30.0 39.0 C 51.0 44.0 51.0 38.0 51.0 38.0 C 56.0 26.0 56.0 26.0 56.0 26.0 C 68.0 14.0 68.0 14.0 
            68.0 14.0 C 83.0 9.0 83.0 9.0 83.0 9.0 C 96.0 9.0 96.0 9.0 96.0 9.0 C 118.0 15.0 118.0 15.0 118.0 15.0 C 
            131.0 28.0 131.0 28.0 131.0 28.0 C 141.0 55.0 141.0 55.0 141.0 55.0 C 152.0 54.0 152.0 54.0 152.0 54.0 C 
            160.0 57.0 160.0 57.0 160.0 57.0 C 166.0 64.0 166.0 64.0 166.0 64.0 C 171.0 78.0 171.0 78.0 171.0 78.0 C 
            169.0 88.0 169.0 88.0 169.0 88.0 C 150.0 99.0 150.0 99.0 150.0 99.0 C 135.0 99.0 135.0 99.0 135.0 99.0 C 
            118.0 94.0 118.0 94.0 118.0 94.0 C 96.0 94.0 96.0 94.0 96.0 94.0 C 66.0 106.0 66.0 106.0 66.0 106.0 C 42.0 
            104.0 42.0 104.0 42.0 104.0 C 28.0 94.0 28.0 94.0 28.0 94.0 C 16.0 91.0 16.0 91.0 16.0 91.0 C 19.0 88.0 16.0 
            87.0 16.0 88.0 z" stroke="lightskyblue"/>
    </g>
</svg>