<?xml version="1.0" standalone="no"?>
<!--Created with Sketsa SVG Editor (http://www.kiyut.com)-->
<svg contentScriptType="text/ecmascript" width="600.0px" xmlns:xlink="http://www.w3.org/1999/xlink" baseProfile="full"
    zoomAndPan="magnify" contentStyleType="text/css" height="600.0px" preserveAspectRatio="xMidYMid meet" xmlns="http://www.w3.org/2000/svg"
    version="1.0">
    <path fill="none" d="M 31.0 235.0 C 33.0 220.0 33.0 220.0 33.0 220.0 C 39.0 207.0 39.0 207.0 39.0 207.0 C 48.0 198.0 
        48.0 198.0 48.0 198.0 C 58.0 196.0 58.0 196.0 58.0 196.0 C 63.0 185.0 63.0 185.0 63.0 185.0 C 75.0 174.0 75.0 
        174.0 75.0 174.0 C 95.0 164.0 95.0 164.0 95.0 164.0 C 103.0 164.0 103.0 164.0 103.0 164.0 C 112.0 171.0 112.0 
        171.0 112.0 171.0 C 117.0 151.0 117.0 151.0 117.0 151.0 C 129.0 138.0 129.0 138.0 129.0 138.0 C 138.0 134.0 
        138.0 134.0 138.0 134.0 C 153.0 134.0 153.0 134.0 153.0 134.0 C 164.0 143.0 164.0 143.0 164.0 143.0 C 173.0 
        127.0 173.0 127.0 173.0 127.0 C 193.0 121.0 193.0 121.0 193.0 121.0 C 214.0 122.0 214.0 122.0 214.0 122.0 C 
        222.0 126.0 222.0 126.0 222.0 126.0 C 232.0 137.0 232.0 137.0 232.0 137.0 C 237.0 151.0 237.0 151.0 237.0 151.0 
        C 254.0 145.0 254.0 145.0 254.0 145.0 C 266.0 145.0 266.0 145.0 266.0 145.0 C 276.0 150.0 276.0 150.0 276.0 
        150.0 C 284.0 164.0 284.0 164.0 284.0 164.0 C 289.0 193.0 289.0 193.0 289.0 193.0 C 308.0 202.0 308.0 202.0 
        308.0 202.0 C 317.0 213.0 317.0 213.0 317.0 213.0 C 319.0 221.0 319.0 221.0 319.0 221.0 C 318.0 238.0 318.0 
        238.0 318.0 238.0 C 311.0 242.0 311.0 242.0 311.0 242.0 C 291.0 243.0 291.0 243.0 291.0 243.0 C 280.0 247.0 
        280.0 247.0 280.0 247.0 C 224.0 248.0 224.0 248.0 224.0 248.0 C 202.0 253.0 202.0 253.0 202.0 253.0 C 173.0 
        250.0 173.0 250.0 173.0 250.0 C 137.0 253.0 137.0 253.0 137.0 253.0 C 111.0 251.0 111.0 251.0 111.0 251.0 C 83.0 
        261.0 83.0 261.0 83.0 261.0 C 61.0 259.0 61.0 259.0 61.0 259.0 C 35.0 240.0 35.0 240.0 35.0 240.0 C 31.0 233.0 
        31.0 233.0 31.0 233.0 C 35.0 239.0 35.0 239.0 31.0 235.0" stroke="#000000"/>
    <path fill="none" d="M 99.0 462.0 C 91.0 437.0 91.0 437.0 91.0 437.0 C 100.0 418.0 100.0 418.0 100.0 418.0 C 113.0 
        413.0 113.0 413.0 113.0 413.0 C 134.0 412.0 134.0 412.0 134.0 412.0 C 139.0 400.0 139.0 400.0 139.0 400.0 C 
        151.0 388.0 151.0 388.0 151.0 388.0 C 166.0 383.0 166.0 383.0 166.0 383.0 C 179.0 383.0 179.0 383.0 179.0 383.0 
        C 201.0 389.0 201.0 389.0 201.0 389.0 C 214.0 402.0 214.0 402.0 214.0 402.0 C 224.0 429.0 224.0 429.0 224.0 
        429.0 C 235.0 428.0 235.0 428.0 235.0 428.0 C 243.0 431.0 243.0 431.0 243.0 431.0 C 249.0 438.0 249.0 438.0 
        249.0 438.0 C 254.0 452.0 254.0 452.0 254.0 452.0 C 252.0 462.0 252.0 462.0 252.0 462.0 C 233.0 473.0 233.0 
        473.0 233.0 473.0 C 218.0 473.0 218.0 473.0 218.0 473.0 C 201.0 468.0 201.0 468.0 201.0 468.0 C 179.0 468.0 
        179.0 468.0 179.0 468.0 C 149.0 480.0 149.0 480.0 149.0 480.0 C 125.0 478.0 125.0 478.0 125.0 478.0 C 111.0 
        468.0 111.0 468.0 111.0 468.0 C 99.0 465.0 99.0 465.0 99.0 465.0 C 102.0 462.0 99.0 461.0 102.0 461.0 z" stroke="#000000"/>
</svg>