<?xml version="1.0" standalone="no"?>
<!--Created with Sketsa SVG Editor (http://www.kiyut.com)-->
<svg contentScriptType="text/ecmascript" xmlns:xlink="http://www.w3.org/1999/xlink" baseProfile="full" zoomAndPan="magnify"
    contentStyleType="text/css" preserveAspectRatio="xMidYMid meet" xmlns="http://www.w3.org/2000/svg" version="1.0">
    <g transform="scale(.4)">
        <path fill="seashell" d="M 12.0 119.0 C 14.0 104.0 14.0 104.0 14.0 104.0 C 20.0 91.0 20.0 91.0 20.0 91.0 C 29.0 
            82.0 29.0 82.0 29.0 82.0 C 39.0 80.0 39.0 80.0 39.0 80.0 C 44.0 69.0 44.0 69.0 44.0 69.0 C 56.0 58.0 56.0 
            58.0 56.0 58.0 C 76.0 48.0 76.0 48.0 76.0 48.0 C 84.0 48.0 84.0 48.0 84.0 48.0 C 93.0 55.0 93.0 55.0 93.0 
            55.0 C 98.0 35.0 98.0 35.0 98.0 35.0 C 110.0 22.0 110.0 22.0 110.0 22.0 C 119.0 18.0 119.0 18.0 119.0 18.0 C 
            134.0 18.0 134.0 18.0 134.0 18.0 C 145.0 27.0 145.0 27.0 145.0 27.0 C 154.0 11.0 154.0 11.0 154.0 11.0 C 
            174.0 5.0 174.0 5.0 174.0 5.0 C 195.0 6.0 195.0 6.0 195.0 6.0 C 203.0 10.0 203.0 10.0 203.0 10.0 C 213.0 
            21.0 213.0 21.0 213.0 21.0 C 218.0 35.0 218.0 35.0 218.0 35.0 C 235.0 29.0 235.0 29.0 235.0 29.0 C 247.0 
            29.0 247.0 29.0 247.0 29.0 C 257.0 34.0 257.0 34.0 257.0 34.0 C 265.0 48.0 265.0 48.0 265.0 48.0 C 270.0 
            77.0 270.0 77.0 270.0 77.0 C 289.0 86.0 289.0 86.0 289.0 86.0 C 298.0 97.0 298.0 97.0 298.0 97.0 C 300.0 
            105.0 300.0 105.0 300.0 105.0 C 299.0 122.0 299.0 122.0 299.0 122.0 C 292.0 126.0 292.0 126.0 292.0 126.0 C 
            272.0 127.0 272.0 127.0 272.0 127.0 C 261.0 131.0 261.0 131.0 261.0 131.0 C 205.0 132.0 205.0 132.0 205.0 
            132.0 C 183.0 137.0 183.0 137.0 183.0 137.0 C 154.0 134.0 154.0 134.0 154.0 134.0 C 118.0 137.0 118.0 137.0 
            118.0 137.0 C 92.0 135.0 92.0 135.0 92.0 135.0 C 64.0 145.0 64.0 145.0 64.0 145.0 C 42.0 143.0 42.0 143.0 
            42.0 143.0 C 16.0 124.0 16.0 124.0 16.0 124.0 C 12.0 117.0 12.0 117.0 12.0 117.0 C 16.0 123.0 16.0 123.0 
            12.0 119.0" stroke="none"/>
    </g>
</svg>