<?xml version="1.0" standalone="no"?>
<!DOCTYPE svg PUBLIC "-//W3C//DTD SVG 1.0//EN" "http://www.w3.org/TR/2001/REC-SVG-20010904/DTD/svg10.dtd">

<!--Created with Sketsa SVG Graphics Editor (http://www.kiyut.com)-->
<svg width="600.0" xmlns:xlink="http://www.w3.org/1999/xlink" height="600.0" xmlns="http://www.w3.org/2000/svg">
    
    <ellipse fill="blue" rx="5.5" cx="105.5" ry="3.0" cy="256.0" stroke="#000000"/>
    <ellipse fill="blue" rx="7.0" cx="131.0" ry="2.5" cy="258.5" stroke="#000000"/>
    <path fill="none" d="M 280.0 423.0 C 291.0 408.0 291.0 408.0 291.0 408.0 C 303.0 380.0 303.0 
        380.0 303.0 380.0 C 314.0 327.0 314.0 327.0 314.0 327.0 C 322.0 307.0 322.0 307.0 322.0 
        307.0 C 339.0 297.0 339.0 297.0 339.0 297.0 C 359.0 297.0 359.0 297.0 359.0 297.0 C 373.0 
        301.0 373.0 301.0 373.0 301.0 C 387.0 323.0 387.0 323.0 387.0 323.0 C 387.0 345.0 387.0 
        345.0 387.0 345.0 C 402.0 367.0 402.0 367.0 402.0 367.0 C 409.0 384.0 409.0 384.0 409.0 
        384.0 C 412.0 434.0 412.0 434.0 412.0 434.0 C 396.0 435.0 396.0 435.0 396.0 435.0 C 376.0 
        428.0 376.0 428.0 376.0 428.0 C 360.0 428.0 360.0 428.0 360.0 428.0 C 340.0 434.0 340.0 
        434.0 340.0 434.0 C 291.0 435.0 291.0 435.0 291.0 435.0 C 272.0 424.0 272.0 424.0 272.0 
        424.0 C 273.0 417.0 273.0 417.0 273.0 417.0 C 281.0 418.0 281.0 418.0 281.0 418.0" stroke="#000000"/>
    <path fill="none" d="M 329.0 320.0 C 333.0 321.0 333.0 321.0 333.0 321.0" stroke="#000000"/>
    <path fill="none" d="M 357.0 324.0 C 366.0 321.0 366.0 321.0 366.0 321.0" stroke="#000000"/>
      <path fill="none" d="M 393.0 349.0 C 408.0 333.0 408.0 333.0 408.0 333.0 C 418.0 305.0 418.0 
        305.0 418.0 305.0 C 418.0 280.0 418.0 280.0 418.0 280.0 C 412.0 265.0 412.0 265.0 412.0 
        265.0" stroke="#000000"/>
    <path fill="none" d="M 330.0 321.0 C 333.0 325.0 333.0 325.0 333.0 325.0 C 338.0 325.0 338.0 
        325.0 338.0 325.0" stroke="#000000"/>
   
    <path fill="none" d="M 327.0 337.0 C 332.0 347.0 332.0 347.0 332.0 347.0 C 338.0 351.0 338.0 
        351.0 338.0 351.0 C 359.0 352.0 359.0 352.0 359.0 352.0 C 366.0 343.0 366.0 343.0 366.0 
        343.0" stroke="#000000"/>
    <path fill="none" d="M 111.0 270.0 C 115.0 266.0 115.0 266.0 115.0 266.0 C 127.0 270.0 127.0 
        270.0 127.0 270.0" stroke="#000000"/>
</svg>